<svg width="20.000000" height="20.000000" viewBox="0 0 20 20" fill="none" xmlns="http://www.w3.org/2000/svg" xmlns:xlink="http://www.w3.org/1999/xlink">
	<defs>
		<clipPath id="clip2_301">
			<rect width="20.000000" height="20.000000" fill="white" fill-opacity="0"/>
		</clipPath>
	</defs>
	<g clip-path="url(#clip2_301)">
		<path d="M2.5 5L17.5 5M15.8333 16.6667C15.8333 17.1087 15.6577 17.5326 15.3452 17.8452C15.0326 18.1577 14.6087 18.3333 14.1667 18.3333L5.83334 18.3333C5.3913 18.3333 4.96738 18.1577 4.65482 17.8452C4.34225 17.5326 4.16666 17.1087 4.16666 16.6667L4.16666 5L15.8333 5L15.8333 16.6667ZM6.66666 5L6.66666 3.33334C6.66666 2.89131 6.84225 2.46739 7.15482 2.15483C7.46738 1.84227 7.8913 1.66667 8.33334 1.66667L11.6667 1.66667C12.1087 1.66667 12.5326 1.84227 12.8452 2.15483C13.1577 2.46739 13.3333 2.89131 13.3333 3.33334L13.3333 5" stroke="#86949E" stroke-opacity="1.000000" stroke-width="2.000000" stroke-linejoin="round"/>
	</g>
</svg>
