<svg width="15.333332" height="3.666672" viewBox="0 0 15.3333 3.66667" fill="none" xmlns="http://www.w3.org/2000/svg" xmlns:xlink="http://www.w3.org/1999/xlink">
	<defs/>
	<path id="Vector" d="M7.66667 2.66667C7.20643 2.66667 6.83333 2.29356 6.83333 1.83333C6.83333 1.37309 7.20643 1 7.66667 1C8.1269 1 8.5 1.37309 8.5 1.83333C8.5 2.29356 8.1269 2.66667 7.66667 2.66667ZM13.5 2.66667C13.0398 2.66667 12.6667 2.29356 12.6667 1.83333C12.6667 1.37309 13.0398 1 13.5 1C13.9602 1 14.3333 1.37309 14.3333 1.83333C14.3333 2.29356 13.9602 2.66667 13.5 2.66667ZM1.83333 2.66667C1.3731 2.66667 1 2.29356 1 1.83333C1 1.37309 1.3731 1 1.83333 1C2.29357 1 2.66667 1.37309 2.66667 1.83333C2.66667 2.29356 2.29357 2.66667 1.83333 2.66667Z" stroke="#86949E" stroke-opacity="1.000000" stroke-width="2.000000" stroke-linejoin="round"/>
</svg>
